<svg width="25" height="24" viewBox="0 0 25 24" fill="none" xmlns="http://www.w3.org/2000/svg">
<g clip-path="url(#clip0_44_143)">
<path d="M24.0594 12.0735C24.0594 5.40454 18.6864 -0.00146484 12.0594 -0.00146484C5.4294 3.51563e-05 0.0563965 5.40454 0.0563965 12.075C0.0563965 18.1005 4.4454 23.0955 10.1814 24.0015V15.564H7.1364V12.075H10.1844V9.41253C10.1844 6.38704 11.9769 4.71603 14.7174 4.71603C16.0314 4.71603 17.4039 4.95154 17.4039 4.95154V7.92154H15.8904C14.4009 7.92154 13.9359 8.85303 13.9359 9.80853V12.0735H17.2629L16.7319 15.5625H13.9344V24C19.6704 23.094 24.0594 18.099 24.0594 12.0735Z" fill="#4267B2"/>
</g>
<defs>
<clipPath id="clip0_44_143">
<rect width="24" height="24" fill="white" transform="translate(0.0593262)"/>
</clipPath>
</defs>
</svg>
